<svg width="67" height="67" viewBox="0 0 67 67" fill="none" xmlns="http://www.w3.org/2000/svg">
<g clip-path="url(#clip0)">
<path d="M0 8.375H8.37505V50.2499H0V8.375ZM12.5625 8.375H16.75V50.2499H12.5625V8.375ZM20.9376 8.375H25.125V50.2499H20.9376V8.375ZM33.5001 8.375H37.6875V50.2499H33.5001V8.375ZM50.25 8.375H54.4376V50.2499H50.25V8.375ZM62.8125 8.375H67.0001V50.2499H62.8125V8.375ZM41.875 8.375H43.9688V50.2499H41.8751V8.375H41.875ZM29.3125 8.375H31.4063V50.2499H29.3125V8.375ZM56.5313 8.375H58.6251V50.2499H56.5313V8.375ZM0 54.4374H4.18746V58.6249H0V54.4374ZM12.5625 54.4374H16.75V58.6249H12.5625V54.4374ZM20.9376 54.4374H25.125V58.6249H20.9376V54.4374ZM41.875 54.4374H46.0624V58.6249H41.875V54.4374ZM62.8125 54.4374H67.0001V58.6249H62.8125V54.4374ZM50.25 54.4374H58.6251V58.6249H50.25V54.4374ZM29.3125 54.4374H37.6875V58.6249H29.3125V54.4374Z" fill="white"/>
</g>
<defs>
<clipPath id="clip0">
<rect width="67" height="67" fill="white" transform="matrix(1 0 0 -1 0 67)"/>
</clipPath>
</defs>
</svg>
