<svg width="75" height="73" viewBox="0 0 75 73" fill="none" xmlns="http://www.w3.org/2000/svg">
<path d="M59.2185 44.9707C57.7466 41.9838 52.4809 37.8379 47.3935 33.8321C44.556 31.5994 41.8747 29.4886 40.1654 27.8248C39.7372 27.4051 39.0966 27.2712 38.5311 27.4689C37.478 27.8401 36.8279 28.1259 36.3155 28.3479C35.5343 28.6886 35.2718 28.8042 34.2186 28.9076C33.7529 28.9532 33.3342 29.1966 33.0748 29.5737C30.8654 32.7887 28.5779 32.5149 27.0498 32.0162C26.5623 31.8581 26.4748 31.6542 26.4279 31.4596C26.0998 30.1243 27.7467 27.0157 29.881 24.9382C34.9592 19.9924 37.5779 18.7544 43.1091 21.1604C49.3841 23.8918 55.6716 26.0302 55.7342 26.0514C56.5561 26.3282 57.4404 25.9084 57.7248 25.1145C58.006 24.3207 57.5778 23.4538 56.7622 23.1771C56.6997 23.1558 50.5372 21.0601 44.3872 18.3803C37.2216 15.2625 33.2903 17.3157 27.6747 22.7847C25.5372 24.8652 22.634 29.0748 23.384 32.1622C23.7058 33.4762 24.6559 34.4496 26.0683 34.9027C29.609 36.0403 32.8401 34.9513 35.2464 31.8428C36.2402 31.6938 36.7809 31.4748 37.5933 31.1189C37.887 30.9912 38.2308 30.8422 38.6871 30.6627C40.4746 32.2961 42.8871 34.1971 45.4277 36.1954C50.0214 39.8119 55.2309 43.9122 56.4027 46.2847C56.9809 47.4557 56.3589 48.2192 55.9371 48.5689C55.3183 49.0861 54.4715 49.2503 54.0121 48.9369C53.5059 48.5993 52.8465 48.5781 52.3246 48.8822C51.7996 49.1863 51.5059 49.7612 51.5715 50.3513C51.6777 51.3186 50.7684 51.8722 50.3746 52.0638C49.3746 52.5566 48.3309 52.4714 47.9402 52.1186C47.5026 51.7232 46.8745 51.6076 46.3183 51.8083C45.7621 52.0121 45.3745 52.5109 45.3183 53.0888C45.2245 54.0864 44.4651 55.0445 43.4745 55.4187C42.9963 55.595 42.3026 55.7015 41.6808 55.1479C41.2933 54.8073 40.7557 54.6764 40.2527 54.795C39.7434 54.9167 39.3339 55.2757 39.1558 55.7532C39.0965 55.9053 38.962 56.2703 37.4995 56.2703C36.4589 56.2703 34.587 55.5859 33.6714 54.9958C32.5746 54.2932 25.6964 49.2988 19.7559 44.4564C18.9215 43.772 17.4777 42.3059 16.2027 41.0102C15.0714 39.8604 14.0371 38.8172 13.5058 38.3792C12.8402 37.8317 11.8558 37.9138 11.3027 38.5587C10.7465 39.2004 10.8276 40.1617 11.4871 40.703C11.9715 41.1015 12.909 42.0657 13.9434 43.115C15.3372 44.5324 16.7777 45.9985 17.7465 46.7894C23.5653 51.5314 30.5591 56.6505 31.9527 57.5417C33.1028 58.2778 35.5809 59.3119 37.4997 59.3119C39.0402 59.3119 40.2247 58.9682 41.0465 58.296C42.1464 58.7128 43.3965 58.7158 44.5996 58.2595C46.0215 57.7242 47.1902 56.6444 47.8527 55.3365C49.0839 55.592 50.4934 55.4125 51.7746 54.7861C53.0277 54.1717 53.9339 53.2318 54.3839 52.1337C55.6277 52.1975 56.9088 51.7687 57.9682 50.8835C59.7622 49.3902 60.2559 47.0664 59.2185 44.9707Z" fill="#DA291C"/>
<path d="M31.25 19.7703H17.1875C16.325 19.7703 15.625 20.4516 15.625 21.2911C15.625 22.1306 16.325 22.812 17.1875 22.812H31.25C32.1125 22.812 32.8126 22.1306 32.8126 21.2911C32.8126 20.4516 32.1125 19.7703 31.25 19.7703Z" fill="#DA291C"/>
<path d="M63.7973 41.7342C63.3128 41.0378 62.3441 40.8461 61.6286 41.3206L57.0598 44.3075C56.3443 44.7759 56.1535 45.7219 56.6349 46.4184C56.938 46.8534 57.4318 47.0906 57.9349 47.0906C58.2319 47.0906 58.5349 47.0085 58.8037 46.8321L63.3725 43.8453C64.0879 43.3767 64.2785 42.4309 63.7973 41.7342Z" fill="#DA291C"/>
<path d="M54.0965 48.9919C52.9778 48.1341 47.9746 43.1489 44.8809 40.0099C44.284 39.4015 43.2934 39.3802 42.6715 39.9642C42.0464 40.5452 42.0277 41.5094 42.6246 42.1147C43.4278 42.9299 50.512 50.1174 52.159 51.3827C52.4433 51.6017 52.7871 51.7083 53.1246 51.7083C53.584 51.7083 54.0433 51.5075 54.3558 51.1272C54.8903 50.4701 54.7747 49.512 54.0965 48.9919Z" fill="#DA291C"/>
<path d="M47.8523 52.0425C45.9804 50.5855 41.2774 45.7219 40.2148 44.5965C39.6272 43.976 38.6429 43.9395 38.0054 44.5052C37.3709 45.074 37.3273 46.0382 37.9116 46.6558C37.9679 46.7135 43.5804 52.6114 45.8991 54.4181C46.1867 54.6401 46.5335 54.7496 46.8741 54.7496C47.3304 54.7496 47.7866 54.5519 48.0959 54.1809C48.6337 53.5237 48.5242 52.5656 47.8523 52.0425Z" fill="#DA291C"/>
<path d="M41.6349 55.1055C39.4067 53.2775 34.8474 48.5537 33.9568 47.6259C33.3662 47.0116 32.3755 46.9781 31.7474 47.5529C31.1162 48.1278 31.0848 49.0889 31.6724 49.7034C32.9537 51.0387 37.3161 55.5405 39.6193 57.4323C39.913 57.6726 40.2692 57.7912 40.6255 57.7912C41.0692 57.7912 41.513 57.6057 41.8224 57.2498C42.3786 56.6049 42.2942 55.6468 41.6349 55.1055Z" fill="#DA291C"/>
<path d="M18.2625 17.1454C15.5843 14.6756 4.875 13.8755 1.6563 13.6901C1.2126 13.6688 0.803174 13.8117 0.490723 14.1007C0.178125 14.3866 0 14.7881 0 15.2078V42.5828C0 43.4223 0.700049 44.1037 1.56255 44.1037H10.9375C11.6125 44.1037 12.2125 43.6809 12.4219 43.0543C12.65 42.3729 18.0344 26.2887 18.7437 18.3803C18.7844 17.9179 18.6094 17.4617 18.2625 17.1454ZM9.79688 41.0621H3.12495V16.8382C8.14688 17.2244 13.5656 18.0639 15.5344 18.9947C14.7063 25.6559 10.9594 37.4911 9.79688 41.0621Z" fill="#DA291C"/>
<path d="M73.4365 16.7285C61.1677 16.7285 54.3615 19.7854 54.0771 19.9131C53.6709 20.0986 53.3677 20.4424 53.2428 20.8591C53.1178 21.2759 53.1802 21.723 53.4146 22.094C55.3458 25.1205 61.3927 41.9288 62.5552 46.0289C62.7427 46.6889 63.3584 47.1451 64.0615 47.1451H73.4365C74.299 47.1451 74.9991 46.4638 74.9991 45.6243V18.2493C74.9991 17.4068 74.299 16.7285 73.4365 16.7285ZM71.8741 44.1035H65.2303C63.7491 39.4071 59.374 27.1614 56.9334 22.1001C59.3178 21.3124 64.4397 19.9588 71.8741 19.7885V44.1035Z" fill="#DA291C"/>
</svg>
