<svg width="26" height="26" viewBox="0 0 26 26" fill="none" xmlns="http://www.w3.org/2000/svg">
<path fill-rule="evenodd" clip-rule="evenodd" d="M26 13C26 20.1797 20.1797 26 13 26C5.8203 26 0 20.1797 0 13C0 5.8203 5.8203 0 13 0C20.1797 0 26 5.8203 26 13ZM24.6316 13C24.6316 19.4239 19.4239 24.6316 13 24.6316C6.57606 24.6316 1.36842 19.4239 1.36842 13C1.36842 6.57606 6.57606 1.36842 13 1.36842C19.4239 1.36842 24.6316 6.57606 24.6316 13Z" fill="white"/>
<path d="M19.9664 7.68416C19.9887 7.62584 20.0001 7.5636 20 7.5008C20 7.36798 19.9494 7.2406 19.8592 7.14668C19.7691 7.05276 19.6469 7 19.5194 7C19.4518 6.99992 19.385 7.01489 19.3234 7.04392V7.0416L5.35682 12.4876C5.32447 12.496 5.29311 12.5082 5.26329 12.5238H5.25885C5.17409 12.5689 5.10429 12.6395 5.05852 12.7264C5.01274 12.8133 4.9931 12.9126 5.00215 13.0113C5.0112 13.11 5.04851 13.2037 5.10925 13.28C5.16999 13.3563 5.25135 13.4119 5.34277 13.4395V13.4414L8.81058 14.5466L10.1707 18.8284C10.1744 18.8407 10.1781 18.8527 10.1822 18.8646L10.1877 18.8823C10.2194 18.9633 10.2679 19.0359 10.3298 19.0948C10.3917 19.1538 10.4655 19.1977 10.5457 19.2233C10.6259 19.2489 10.7105 19.2555 10.7935 19.2428C10.8765 19.2301 10.9557 19.1983 11.0255 19.1497V19.1497C11.0757 19.1145 11.1202 19.0712 11.1575 19.0214L13.0403 17.19L16.4442 19.7872C16.4953 19.8403 16.5539 19.885 16.618 19.9197V19.9197C16.7249 19.9767 16.844 20.0042 16.964 19.9995C17.0839 19.9948 17.2008 19.9582 17.3033 19.8931C17.4058 19.828 17.4906 19.7366 17.5496 19.6276C17.6086 19.5186 17.6398 19.3957 17.6402 19.2706C17.6402 19.2527 17.6394 19.2346 17.638 19.2163L19.9671 7.68455L19.9664 7.68416ZM10.9057 15.5208L10.7134 17.6985L9.61949 14.2596L9.62725 14.2334L17.1296 9.25512C17.1571 9.24856 17.1856 9.24862 17.213 9.25529C17.2404 9.26197 17.266 9.27509 17.2879 9.29364C17.3533 9.35566 17.3381 9.4643 17.3004 9.49473C17.2627 9.52516 15.632 11.0819 15.6309 11.0826L10.9057 15.5208Z" fill="white"/>
</svg>
