<svg width="90" height="90" viewBox="0 0 90 90" fill="none" xmlns="http://www.w3.org/2000/svg">
<path d="M15.78 58.0937C16.4011 59.476 15.7841 61.1001 14.4019 61.7212C13.0196 62.3424 11.3955 61.7254 10.7744 60.3431C8.62595 55.5623 7.5 50.3568 7.5 45C7.5 24.2897 24.2897 7.5 45 7.5C65.7103 7.5 82.5 24.2897 82.5 45C82.5 65.7103 65.7103 82.5 45 82.5C36.2002 82.5 27.8615 79.4552 21.1975 73.9803C20.0266 73.0183 19.8572 71.2892 20.8192 70.1183C21.7812 68.9474 23.5103 68.778 24.6812 69.74C30.3725 74.4159 37.4831 77.0122 45 77.0122C62.6794 77.0122 77.0122 62.6794 77.0122 45C77.0122 27.3206 62.6794 12.9878 45 12.9878C27.3206 12.9878 12.9878 27.3206 12.9878 45C12.9878 49.5779 13.948 54.0171 15.78 58.0937Z" fill="#3dd1ec"/>
</svg>
